<svg xmlns="http://www.w3.org/2000/svg" xmlns:xlink="http://www.w3.org/1999/xlink" version="1.1" id="Layer_1" x="0px" y="0px" width="200px" height="28px" viewBox="0 0 200 28" enable-background="new 0 0 200 28" xml:space="preserve">
<g>
	<g>
		<g>
			<g>
				<path fill="#1F0961" d="M43.245,14.986c0.843,1.103,1.265,2.527,1.265,4.271c0,3.053-0.856,5.181-2.569,6.386      c-1.713,1.206-3.753,1.808-6.12,1.808h-9.407c-0.655,0-1.203-0.224-1.644-0.673c-0.441-0.448-0.661-1.006-0.661-1.673V2.867      c0-0.667,0.22-1.225,0.661-1.674c0.441-0.448,0.988-0.673,1.644-0.673h9.52c4.785,0,7.178,2.283,7.178,6.849      c0,1.154-0.271,2.173-0.813,3.059c-0.542,0.885-1.316,1.584-2.323,2.097C41.311,13.062,42.4,13.883,43.245,14.986z       M37.426,5.848C36.91,5.323,36.186,5.06,35.255,5.06h-6.234v6.002h6.347c0.756,0,1.416-0.256,1.983-0.77      c0.566-0.513,0.85-1.205,0.85-2.077C38.201,7.163,37.943,6.375,37.426,5.848z M38.598,22.065      c0.667-0.641,1.001-1.577,1.001-2.808c0-1.513-0.391-2.501-1.171-2.963c-0.781-0.462-1.738-0.692-2.872-0.692h-6.536v7.425h6.8      C37.005,23.027,37.93,22.706,38.598,22.065z"/>
			</g>
			<g>
				<path fill="#1F0961" d="M102.042,7.137c0.428,0.436,0.642,1,0.642,1.693v16.275c0,0.667-0.214,1.225-0.642,1.673      c-0.429,0.449-0.97,0.673-1.624,0.673c-0.656,0-1.19-0.217-1.606-0.654c-0.415-0.436-0.636-0.987-0.661-1.654      c-0.63,0.744-1.48,1.379-2.55,1.904c-1.071,0.525-2.198,0.789-3.381,0.789c-1.738,0-3.312-0.455-4.723-1.366      c-1.41-0.91-2.525-2.173-3.343-3.79c-0.819-1.616-1.228-3.45-1.228-5.502s0.403-3.892,1.209-5.521      c0.806-1.628,1.908-2.898,3.306-3.809c1.398-0.91,2.94-1.366,4.628-1.366c1.208,0,2.342,0.225,3.4,0.673      c1.058,0.449,1.952,1.02,2.682,1.712V8.83c0-0.667,0.214-1.225,0.642-1.673c0.428-0.449,0.969-0.673,1.625-0.673      C101.072,6.483,101.613,6.702,102.042,7.137z M96.791,21.776c1.032-1.218,1.549-2.751,1.549-4.597      c0-1.847-0.517-3.386-1.549-4.617c-1.033-1.231-2.368-1.847-4.005-1.847c-1.612,0-2.935,0.616-3.967,1.847      c-1.033,1.231-1.549,2.77-1.549,4.617c0,1.847,0.511,3.38,1.531,4.597c1.02,1.219,2.348,1.827,3.985,1.827      C94.423,23.604,95.758,22.995,96.791,21.776z"/>
			</g>
			<g>
				<path fill="#1F0961" d="M122.317,25.143c0,0.641-0.245,1.18-0.737,1.616c-0.491,0.436-1.014,0.654-1.568,0.654      c-0.655,0-1.209-0.256-1.662-0.769l-6.8-7.31l-1.851,1.732v4.04c0,0.667-0.214,1.225-0.642,1.673      c-0.428,0.449-0.97,0.673-1.624,0.673c-0.656,0-1.197-0.224-1.624-0.673c-0.429-0.448-0.643-1.006-0.643-1.673V2.867      c0-0.667,0.214-1.225,0.643-1.674c0.428-0.448,0.969-0.673,1.624-0.673c0.655,0,1.196,0.225,1.624,0.673      c0.428,0.449,0.642,1.007,0.642,1.674v12.696l8.085-7.964c0.478-0.487,1.033-0.731,1.662-0.731c0.554,0,1.051,0.237,1.492,0.712      c0.44,0.475,0.661,0.956,0.661,1.443c0,0.616-0.302,1.193-0.907,1.732l-5.705,5.348l6.612,7.31      C122.077,23.925,122.317,24.502,122.317,25.143z"/>
			</g>
			<g>
				<path fill="#1F0961" d="M145.539,1.135c0.428,0.41,0.642,0.949,0.642,1.616c0,0.667-0.214,1.199-0.642,1.596      c-0.429,0.398-0.982,0.596-1.663,0.596h-5.931v20.16c0,0.667-0.24,1.225-0.718,1.673c-0.479,0.449-1.071,0.673-1.776,0.673      s-1.284-0.224-1.738-0.673c-0.453-0.448-0.68-1.006-0.68-1.673V4.944h-5.932c-0.68,0-1.234-0.205-1.662-0.616      c-0.429-0.41-0.642-0.949-0.642-1.616c0-0.641,0.22-1.167,0.661-1.578c0.44-0.41,0.988-0.616,1.643-0.616h16.774      C144.557,0.52,145.11,0.725,145.539,1.135z"/>
			</g>
			<g>
				<path fill="#1F0961" d="M199.358,7.541C199.786,7.99,200,8.548,200,9.215v9.773c0,2.77-0.75,4.938-2.248,6.502      c-1.499,1.565-3.633,2.347-6.404,2.347c-2.771,0-4.899-0.782-6.385-2.347c-1.486-1.564-2.229-3.732-2.229-6.502V9.215      c0-0.667,0.213-1.224,0.642-1.673c0.428-0.448,0.969-0.673,1.624-0.673c0.655,0,1.196,0.225,1.624,0.673      c0.428,0.449,0.643,1.007,0.643,1.673v9.773c0,1.565,0.34,2.726,1.02,3.482c0.68,0.757,1.7,1.135,3.06,1.135      c1.385,0,2.418-0.378,3.098-1.135c0.68-0.756,1.02-1.917,1.02-3.482V9.215c0-0.667,0.213-1.224,0.642-1.673      c0.428-0.448,0.969-0.673,1.624-0.673C198.388,6.868,198.93,7.093,199.358,7.541z"/>
			</g>
			<g>
				<path fill="#1F0961" d="M57.698,6.826H49.23c-1.237,0-2.239,1.004-2.239,2.243v15.797c0,1.238,1.003,2.243,2.239,2.243l0,0      c1.237,0,2.239-1.004,2.239-2.243V12.026c0-0.394,0.319-0.714,0.713-0.714h5.515c1.237,0,2.24-1.004,2.24-2.243l0,0      C59.937,7.83,58.934,6.826,57.698,6.826z"/>
			</g>
			<g>
				<path fill="#1F0961" d="M177.956,6.826h-8.467c-1.237,0-2.239,1.004-2.239,2.243v15.797c0,1.238,1.002,2.243,2.239,2.243l0,0      c1.237,0,2.239-1.004,2.239-2.243V12.026c0-0.394,0.319-0.714,0.713-0.714h5.515c1.237,0,2.24-1.004,2.24-2.243l0,0      C180.196,7.83,179.193,6.826,177.956,6.826z"/>
			</g>
			<g>
				<path fill="#1F0961" d="M78.14,18.756c0.605,0,1.133-0.192,1.587-0.577c0.454-0.385,0.693-0.885,0.718-1.501      c0-1.821-0.441-3.514-1.322-5.079c-0.882-1.564-2.059-2.808-3.533-3.732c-1.474-0.923-3.041-1.385-4.703-1.385      c-1.688,0-3.275,0.442-4.76,1.328c-1.486,0.885-2.682,2.161-3.589,3.828c-0.906,1.668-1.36,3.604-1.36,5.81      c0,1.976,0.428,3.751,1.284,5.328c0.856,1.577,2.072,2.815,3.646,3.713c1.574,0.898,3.419,1.346,5.535,1.346      c1.209,0,2.405-0.206,3.589-0.616c1.183-0.41,2.128-0.91,2.833-1.5c0.704-0.564,1.058-1.193,1.058-1.885      c0-0.513-0.189-0.962-0.566-1.346c-0.378-0.385-0.831-0.577-1.36-0.577c-0.404,0-0.831,0.116-1.285,0.346      c-0.126,0.077-0.359,0.224-0.699,0.442c-0.339,0.218-0.799,0.423-1.379,0.616c-0.58,0.192-1.385,0.288-2.418,0.288      c-1.36,0-2.582-0.429-3.664-1.289c-1.083-0.859-1.776-2.045-2.078-3.559c-0.365-1.843,0.038-3.847,0.038-3.847      c0.529-2.795,2.254-4.194,5.176-4.194c1.184,0,2.241,0.385,3.174,1.154c0.932,0.769,1.448,1.693,1.549,2.77v0.269h-6.003      c-1.043,0-1.889,0.861-1.889,1.924l0,0c0,1.062,0.846,1.924,1.889,1.924H78.14z"/>
			</g>
			<g>
				<path fill="#1F0961" d="M156.149,6.783c-1.396,0-2.711,0.354-3.87,0.972V2.817c0-1.269-1.01-2.297-2.256-2.297      c-1.246,0-2.256,1.029-2.256,2.297v12.502v5.81v3.88c0,1.269,1.01,2.297,2.256,2.297c1.246,0,2.256-1.028,2.256-2.297v-3.88      v-5.81c0-2.173,1.736-3.941,3.87-3.941c2.134,0,3.87,1.768,3.87,3.941v9.69c0,1.269,1.01,2.297,2.256,2.297      c1.246,0,2.256-1.028,2.256-2.297v-9.69C164.531,10.612,160.77,6.783,156.149,6.783z"/>
			</g>
		</g>
	</g>
	<g>
		<path fill="#175DFD" d="M3.55,7.724C1.592,7.724,0,6.102,0,4.109s1.592-3.615,3.55-3.615c1.957,0,3.55,1.622,3.55,3.615    S5.507,7.724,3.55,7.724z"/>
	</g>
	<g>
		<path fill="#FC86FD" d="M3.55,17.78C1.592,17.78,0,16.158,0,14.165s1.592-3.615,3.55-3.615c1.957,0,3.55,1.622,3.55,3.615    S5.507,17.78,3.55,17.78z"/>
	</g>
	<g>
		<path fill="#63B3FD" d="M11.875,12.752c-1.957,0-3.55-1.621-3.55-3.615c0-1.993,1.592-3.615,3.55-3.615    c1.957,0,3.549,1.622,3.549,3.615C15.424,11.13,13.832,12.752,11.875,12.752z"/>
	</g>
	<g>
		<path fill="#6C3BF7" d="M3.55,27.836c-1.958,0-3.55-1.622-3.55-3.615s1.592-3.615,3.55-3.615c1.957,0,3.55,1.622,3.55,3.615    S5.507,27.836,3.55,27.836z"/>
	</g>
	<g>
		<path fill="#C031FD" d="M11.875,22.808c-1.957,0-3.55-1.621-3.55-3.615s1.592-3.615,3.55-3.615c1.957,0,3.549,1.622,3.549,3.615    S13.832,22.808,11.875,22.808z"/>
	</g>
</g>
</svg>